<mxfile host="app.diagrams.net" modified="2023-10-20T06:10:52.986Z" agent="Mozilla/5.0 (Windows NT 10.0; Win64; x64) AppleWebKit/537.36 (KHTML, like Gecko) Chrome/118.0.0.0 Safari/537.36 Edg/118.0.2088.57" etag="dlQv48JG_mvDRic2-Zef" version="22.0.5" type="github">
  <diagram name="第 1 页" id="gOjxtVY7tF4sNAq68ONt">
    <mxGraphModel dx="1489" dy="832" grid="1" gridSize="10" guides="1" tooltips="1" connect="1" arrows="1" fold="1" page="1" pageScale="1" pageWidth="827" pageHeight="1169" math="0" shadow="0">
      <root>
        <mxCell id="0" />
        <mxCell id="1" parent="0" />
        <UserObject label="" plantUmlData="{&#xa;  &quot;data&quot;: &quot;@startuml\n\npackage \&quot;用户界面层\&quot; {\n  rectangle \&quot;学生界面\&quot;\n  rectangle \&quot;家长界面\&quot;\n  rectangle \&quot;老师界面\&quot;\n  rectangle \&quot;管理员界面\&quot;\n}\n\npackage \&quot;应用服务层\&quot; {\n  rectangle \&quot;考勤管理\&quot;\n  rectangle \&quot;红外测温\&quot;\n  rectangle \&quot;访客管理\&quot;\n  rectangle \&quot;教室门禁\&quot;\n  rectangle \&quot;校园消费\&quot;\n}\n\npackage \&quot;业务逻辑层\&quot; {\n  rectangle \&quot;考勤管理模块\&quot;\n  rectangle \&quot;红外测温模块\&quot;\n  rectangle \&quot;访客管理模块\&quot;\n  rectangle \&quot;教室门禁模块\&quot;\n  rectangle \&quot;校园消费模块\&quot;\n}\n\npackage \&quot;数据访问层\&quot; {\n  rectangle \&quot;数据库\&quot;\n}\n\n\&quot;学生界面\&quot; --&gt; \&quot;考勤管理\&quot;\n\&quot;家长界面\&quot; --&gt; \&quot;考勤管理\&quot;\n\&quot;老师界面\&quot; --&gt; \&quot;考勤管理\&quot;\n\&quot;管理员界面\&quot; --&gt; \&quot;考勤管理\&quot;\n\n\&quot;考勤管理\&quot; --&gt; \&quot;考勤管理模块\&quot;\n\&quot;红外测温\&quot; --&gt; \&quot;红外测温模块\&quot;\n\&quot;访客管理\&quot; --&gt; \&quot;访客管理模块\&quot;\n\&quot;教室门禁\&quot; --&gt; \&quot;教室门禁模块\&quot;\n\&quot;校园消费\&quot; --&gt; \&quot;校园消费模块\&quot;\n\n\&quot;考勤管理模块\&quot; --&gt; \&quot;数据库\&quot;\n\&quot;红外测温模块\&quot; --&gt; \&quot;数据库\&quot;\n\&quot;访客管理模块\&quot; --&gt; \&quot;数据库\&quot;\n\&quot;教室门禁模块\&quot; --&gt; \&quot;数据库\&quot;\n\&quot;校园消费模块\&quot; --&gt; \&quot;数据库\&quot;\n\n@enduml&quot;,&#xa;  &quot;format&quot;: &quot;svg&quot;&#xa;}" id="Yr7Z3ouoHnWj6gfLZvRm-2">
          <mxCell style="shape=image;noLabel=1;verticalAlign=top;aspect=fixed;imageAspect=0;image=data:image/svg+xml,PD94bWwgdmVyc2lvbj0iMS4wIiBlbmNvZGluZz0idXMtYXNjaWkiIHN0YW5kYWxvbmU9Im5vIj8+PHN2ZyB4bWxucz0iaHR0cDovL3d3dy53My5vcmcvMjAwMC9zdmciIHhtbG5zOnhsaW5rPSJodHRwOi8vd3d3LnczLm9yZy8xOTk5L3hsaW5rIiBjb250ZW50U3R5bGVUeXBlPSJ0ZXh0L2NzcyIgaGVpZ2h0PSI0MjFweCIgcHJlc2VydmVBc3BlY3RSYXRpbz0ibm9uZSIgc3R5bGU9IndpZHRoOjgwMXB4O2hlaWdodDo0MjFweDtiYWNrZ3JvdW5kOiNGRkZGRkY7IiB2ZXJzaW9uPSIxLjEiIHZpZXdCb3g9IjAgMCA4MDEgNDIxIiB3aWR0aD0iODAxcHgiIHpvb21BbmRQYW49Im1hZ25pZnkiPjxkZWZzLz48Zz48IS0tY2x1c3RlciA/Pz8/Py0tPjxnIGlkPSJjbHVzdGVyXyYjMjk5OTI7JiMyNTE0MzsmIzMwMDI4OyYjMzg3NTQ7JiMyMzYxODsiPjxwYXRoIGQ9Ik0zNDEuNSw2IEw0MTIuNSw2IEEzLjc1LDMuNzUgMCAwIDEgNDE1LDguNSBMNDIyLDI2Ljk4NDQgTDc5MS41LDI2Ljk4NDQgQTIuNSwyLjUgMCAwIDEgNzk0LDI5LjQ4NDQgTDc5NCw4Ny41IEEyLjUsMi41IDAgMCAxIDc5MS41LDkwIEwzNDEuNSw5MCBBMi41LDIuNSAwIDAgMSAzMzksODcuNSBMMzM5LDguNSBBMi41LDIuNSAwIDAgMSAzNDEuNSw2ICIgZmlsbD0ibm9uZSIgc3R5bGU9InN0cm9rZTojMDAwMDAwO3N0cm9rZS13aWR0aDoxLjU7Ii8+PGxpbmUgc3R5bGU9InN0cm9rZTojMDAwMDAwO3N0cm9rZS13aWR0aDoxLjU7IiB4MT0iMzM5IiB4Mj0iNDIyIiB5MT0iMjYuOTg0NCIgeTI9IjI2Ljk4NDQiLz48dGV4dCBmaWxsPSIjMDAwMDAwIiBmb250LWZhbWlseT0ic2Fucy1zZXJpZiIgZm9udC1zaXplPSIxNCIgZm9udC13ZWlnaHQ9ImJvbGQiIGxlbmd0aEFkanVzdD0ic3BhY2luZyIgdGV4dExlbmd0aD0iNzAiIHg9IjM0MyIgeT0iMjEuMjM0NCI+JiMyOTk5MjsmIzI1MTQzOyYjMzAwMjg7JiMzODc1NDsmIzIzNjE4OzwvdGV4dD48L2c+PCEtLWNsdXN0ZXIgPz8/Pz8tLT48ZyBpZD0iY2x1c3Rlcl8mIzI0MjEyOyYjMjk5OTI7JiMyNjM4MTsmIzIxMTUzOyYjMjM2MTg7Ij48cGF0aCBkPSJNNzguNSwxMTQgTDE0OS41LDExNCBBMy43NSwzLjc1IDAgMCAxIDE1MiwxMTYuNSBMMTU5LDEzNC45ODQ0IEw2MjUuNSwxMzQuOTg0NCBBMi41LDIuNSAwIDAgMSA2MjgsMTM3LjQ4NDQgTDYyOCwxOTUuNSBBMi41LDIuNSAwIDAgMSA2MjUuNSwxOTggTDc4LjUsMTk4IEEyLjUsMi41IDAgMCAxIDc2LDE5NS41IEw3NiwxMTYuNSBBMi41LDIuNSAwIDAgMSA3OC41LDExNCAiIGZpbGw9Im5vbmUiIHN0eWxlPSJzdHJva2U6IzAwMDAwMDtzdHJva2Utd2lkdGg6MS41OyIvPjxsaW5lIHN0eWxlPSJzdHJva2U6IzAwMDAwMDtzdHJva2Utd2lkdGg6MS41OyIgeDE9Ijc2IiB4Mj0iMTU5IiB5MT0iMTM0Ljk4NDQiIHkyPSIxMzQuOTg0NCIvPjx0ZXh0IGZpbGw9IiMwMDAwMDAiIGZvbnQtZmFtaWx5PSJzYW5zLXNlcmlmIiBmb250LXNpemU9IjE0IiBmb250LXdlaWdodD0iYm9sZCIgbGVuZ3RoQWRqdXN0PSJzcGFjaW5nIiB0ZXh0TGVuZ3RoPSI3MCIgeD0iODAiIHk9IjEyOS4yMzQ0Ij4mIzI0MjEyOyYjMjk5OTI7JiMyNjM4MTsmIzIxMTUzOyYjMjM2MTg7PC90ZXh0PjwvZz48IS0tY2x1c3RlciA/Pz8/Py0tPjxnIGlkPSJjbHVzdGVyXyYjMTk5OTQ7JiMyMTE1MzsmIzM2OTIzOyYjMzY3NTM7JiMyMzYxODsiPjxwYXRoIGQ9Ik04LjUsMjIyIEw3OS41LDIyMiBBMy43NSwzLjc1IDAgMCAxIDgyLDIyNC41IEw4OSwyNDIuOTg0NCBMNjk1LjUsMjQyLjk4NDQgQTIuNSwyLjUgMCAwIDEgNjk4LDI0NS40ODQ0IEw2OTgsMzAzLjUgQTIuNSwyLjUgMCAwIDEgNjk1LjUsMzA2IEw4LjUsMzA2IEEyLjUsMi41IDAgMCAxIDYsMzAzLjUgTDYsMjI0LjUgQTIuNSwyLjUgMCAwIDEgOC41LDIyMiAiIGZpbGw9Im5vbmUiIHN0eWxlPSJzdHJva2U6IzAwMDAwMDtzdHJva2Utd2lkdGg6MS41OyIvPjxsaW5lIHN0eWxlPSJzdHJva2U6IzAwMDAwMDtzdHJva2Utd2lkdGg6MS41OyIgeDE9IjYiIHgyPSI4OSIgeTE9IjI0Mi45ODQ0IiB5Mj0iMjQyLjk4NDQiLz48dGV4dCBmaWxsPSIjMDAwMDAwIiBmb250LWZhbWlseT0ic2Fucy1zZXJpZiIgZm9udC1zaXplPSIxNCIgZm9udC13ZWlnaHQ9ImJvbGQiIGxlbmd0aEFkanVzdD0ic3BhY2luZyIgdGV4dExlbmd0aD0iNzAiIHg9IjEwIiB5PSIyMzcuMjM0NCI+JiMxOTk5NDsmIzIxMTUzOyYjMzY5MjM7JiMzNjc1MzsmIzIzNjE4OzwvdGV4dD48L2c+PCEtLWNsdXN0ZXIgPz8/Pz8tLT48ZyBpZD0iY2x1c3Rlcl8mIzI1OTY4OyYjMjU0NTQ7JiMzNTc3NTsmIzM4MzgyOyYjMjM2MTg7Ij48cGF0aCBkPSJNMzA3LjUsMzMwIEwzNzguNSwzMzAgQTMuNzUsMy43NSAwIDAgMSAzODEsMzMyLjUgTDM4OCwzNTAuOTg0NCBMMzk2LjUsMzUwLjk4NDQgQTIuNSwyLjUgMCAwIDEgMzk5LDM1My40ODQ0IEwzOTksNDExLjUgQTIuNSwyLjUgMCAwIDEgMzk2LjUsNDE0IEwzMDcuNSw0MTQgQTIuNSwyLjUgMCAwIDEgMzA1LDQxMS41IEwzMDUsMzMyLjUgQTIuNSwyLjUgMCAwIDEgMzA3LjUsMzMwICIgZmlsbD0ibm9uZSIgc3R5bGU9InN0cm9rZTojMDAwMDAwO3N0cm9rZS13aWR0aDoxLjU7Ii8+PGxpbmUgc3R5bGU9InN0cm9rZTojMDAwMDAwO3N0cm9rZS13aWR0aDoxLjU7IiB4MT0iMzA1IiB4Mj0iMzg4IiB5MT0iMzUwLjk4NDQiIHkyPSIzNTAuOTg0NCIvPjx0ZXh0IGZpbGw9IiMwMDAwMDAiIGZvbnQtZmFtaWx5PSJzYW5zLXNlcmlmIiBmb250LXNpemU9IjE0IiBmb250LXdlaWdodD0iYm9sZCIgbGVuZ3RoQWRqdXN0PSJzcGFjaW5nIiB0ZXh0TGVuZ3RoPSI3MCIgeD0iMzA5IiB5PSIzNDUuMjM0NCI+JiMyNTk2ODsmIzI1NDU0OyYjMzU3NzU7JiMzODM4MjsmIzIzNjE4OzwvdGV4dD48L2c+PCEtLWVudGl0eSA/Pz8/LS0+PGcgaWQ9ImVsZW1fJiMyMzM5ODsmIzI5OTgzOyYjMzAwMjg7JiMzODc1NDsiPjxyZWN0IGZpbGw9IiNGMUYxRjEiIGhlaWdodD0iMzQuOTg0NCIgcng9IjIuNSIgcnk9IjIuNSIgc3R5bGU9InN0cm9rZTojMTgxODE4O3N0cm9rZS13aWR0aDowLjU7IiB3aWR0aD0iNzYiIHg9IjcwMiIgeT0iMzkiLz48dGV4dCBmaWxsPSIjMDAwMDAwIiBmb250LWZhbWlseT0ic2Fucy1zZXJpZiIgZm9udC1zaXplPSIxNCIgbGVuZ3RoQWRqdXN0PSJzcGFjaW5nIiB0ZXh0TGVuZ3RoPSI1NiIgeD0iNzEyIiB5PSI2Mi4yMzQ0Ij4mIzIzMzk4OyYjMjk5ODM7JiMzMDAyODsmIzM4NzU0OzwvdGV4dD48L2c+PCEtLWVudGl0eSA/Pz8/LS0+PGcgaWQ9ImVsZW1fJiMyMzQ3ODsmIzM4MjcxOyYjMzAwMjg7JiMzODc1NDsiPjxyZWN0IGZpbGw9IiNGMUYxRjEiIGhlaWdodD0iMzQuOTg0NCIgcng9IjIuNSIgcnk9IjIuNSIgc3R5bGU9InN0cm9rZTojMTgxODE4O3N0cm9rZS13aWR0aDowLjU7IiB3aWR0aD0iNzYiIHg9IjU5MSIgeT0iMzkiLz48dGV4dCBmaWxsPSIjMDAwMDAwIiBmb250LWZhbWlseT0ic2Fucy1zZXJpZiIgZm9udC1zaXplPSIxNCIgbGVuZ3RoQWRqdXN0PSJzcGFjaW5nIiB0ZXh0TGVuZ3RoPSI1NiIgeD0iNjAxIiB5PSI2Mi4yMzQ0Ij4mIzIzNDc4OyYjMzgyNzE7JiMzMDAyODsmIzM4NzU0OzwvdGV4dD48L2c+PCEtLWVudGl0eSA/Pz8/LS0+PGcgaWQ9ImVsZW1fJiMzMjc2OTsmIzI0MDcyOyYjMzAwMjg7JiMzODc1NDsiPjxyZWN0IGZpbGw9IiNGMUYxRjEiIGhlaWdodD0iMzQuOTg0NCIgcng9IjIuNSIgcnk9IjIuNSIgc3R5bGU9InN0cm9rZTojMTgxODE4O3N0cm9rZS13aWR0aDowLjU7IiB3aWR0aD0iNzYiIHg9IjQ4MCIgeT0iMzkiLz48dGV4dCBmaWxsPSIjMDAwMDAwIiBmb250LWZhbWlseT0ic2Fucy1zZXJpZiIgZm9udC1zaXplPSIxNCIgbGVuZ3RoQWRqdXN0PSJzcGFjaW5nIiB0ZXh0TGVuZ3RoPSI1NiIgeD0iNDkwIiB5PSI2Mi4yMzQ0Ij4mIzMyNzY5OyYjMjQwNzI7JiMzMDAyODsmIzM4NzU0OzwvdGV4dD48L2c+PCEtLWVudGl0eSA/Pz8/Py0tPjxnIGlkPSJlbGVtXyYjMzE2NDk7JiMyOTcwMjsmIzIxNTkyOyYjMzAwMjg7JiMzODc1NDsiPjxyZWN0IGZpbGw9IiNGMUYxRjEiIGhlaWdodD0iMzQuOTg0NCIgcng9IjIuNSIgcnk9IjIuNSIgc3R5bGU9InN0cm9rZTojMTgxODE4O3N0cm9rZS13aWR0aDowLjU7IiB3aWR0aD0iOTAiIHg9IjM1NSIgeT0iMzkiLz48dGV4dCBmaWxsPSIjMDAwMDAwIiBmb250LWZhbWlseT0ic2Fucy1zZXJpZiIgZm9udC1zaXplPSIxNCIgbGVuZ3RoQWRqdXN0PSJzcGFjaW5nIiB0ZXh0TGVuZ3RoPSI3MCIgeD0iMzY1IiB5PSI2Mi4yMzQ0Ij4mIzMxNjQ5OyYjMjk3MDI7JiMyMTU5MjsmIzMwMDI4OyYjMzg3NTQ7PC90ZXh0PjwvZz48IS0tZW50aXR5ID8/Pz8tLT48ZyBpZD0iZWxlbV8mIzMyNzcxOyYjMjEyMjA7JiMzMTY0OTsmIzI5NzAyOyI+PHJlY3QgZmlsbD0iI0YxRjFGMSIgaGVpZ2h0PSIzNC45ODQ0IiByeD0iMi41IiByeT0iMi41IiBzdHlsZT0ic3Ryb2tlOiMxODE4MTg7c3Ryb2tlLXdpZHRoOjAuNTsiIHdpZHRoPSI3NiIgeD0iNTM2IiB5PSIxNDciLz48dGV4dCBmaWxsPSIjMDAwMDAwIiBmb250LWZhbWlseT0ic2Fucy1zZXJpZiIgZm9udC1zaXplPSIxNCIgbGVuZ3RoQWRqdXN0PSJzcGFjaW5nIiB0ZXh0TGVuZ3RoPSI1NiIgeD0iNTQ2IiB5PSIxNzAuMjM0NCI+JiMzMjc3MTsmIzIxMjIwOyYjMzE2NDk7JiMyOTcwMjs8L3RleHQ+PC9nPjwhLS1lbnRpdHkgPz8/Py0tPjxnIGlkPSJlbGVtXyYjMzI0MTg7JiMyMjgwNjsmIzI3OTc5OyYjMjgyMDE7Ij48cmVjdCBmaWxsPSIjRjFGMUYxIiBoZWlnaHQ9IjM0Ljk4NDQiIHJ4PSIyLjUiIHJ5PSIyLjUiIHN0eWxlPSJzdHJva2U6IzE4MTgxODtzdHJva2Utd2lkdGg6MC41OyIgd2lkdGg9Ijc2IiB4PSI0MjUiIHk9IjE0NyIvPjx0ZXh0IGZpbGw9IiMwMDAwMDAiIGZvbnQtZmFtaWx5PSJzYW5zLXNlcmlmIiBmb250LXNpemU9IjE0IiBsZW5ndGhBZGp1c3Q9InNwYWNpbmciIHRleHRMZW5ndGg9IjU2IiB4PSI0MzUiIHk9IjE3MC4yMzQ0Ij4mIzMyNDE4OyYjMjI4MDY7JiMyNzk3OTsmIzI4MjAxOzwvdGV4dD48L2c+PCEtLWVudGl0eSA/Pz8/LS0+PGcgaWQ9ImVsZW1fJiMzNTc3NTsmIzIzNDU4OyYjMzE2NDk7JiMyOTcwMjsiPjxyZWN0IGZpbGw9IiNGMUYxRjEiIGhlaWdodD0iMzQuOTg0NCIgcng9IjIuNSIgcnk9IjIuNSIgc3R5bGU9InN0cm9rZTojMTgxODE4O3N0cm9rZS13aWR0aDowLjU7IiB3aWR0aD0iNzYiIHg9IjMxNCIgeT0iMTQ3Ii8+PHRleHQgZmlsbD0iIzAwMDAwMCIgZm9udC1mYW1pbHk9InNhbnMtc2VyaWYiIGZvbnQtc2l6ZT0iMTQiIGxlbmd0aEFkanVzdD0ic3BhY2luZyIgdGV4dExlbmd0aD0iNTYiIHg9IjMyNCIgeT0iMTcwLjIzNDQiPiYjMzU3NzU7JiMyMzQ1ODsmIzMxNjQ5OyYjMjk3MDI7PC90ZXh0PjwvZz48IS0tZW50aXR5ID8/Pz8tLT48ZyBpZD0iZWxlbV8mIzI1OTQ1OyYjMjM0NjA7JiMzODM3NjsmIzMxMTA1OyI+PHJlY3QgZmlsbD0iI0YxRjFGMSIgaGVpZ2h0PSIzNC45ODQ0IiByeD0iMi41IiByeT0iMi41IiBzdHlsZT0ic3Ryb2tlOiMxODE4MTg7c3Ryb2tlLXdpZHRoOjAuNTsiIHdpZHRoPSI3NiIgeD0iMjAzIiB5PSIxNDciLz48dGV4dCBmaWxsPSIjMDAwMDAwIiBmb250LWZhbWlseT0ic2Fucy1zZXJpZiIgZm9udC1zaXplPSIxNCIgbGVuZ3RoQWRqdXN0PSJzcGFjaW5nIiB0ZXh0TGVuZ3RoPSI1NiIgeD0iMjEzIiB5PSIxNzAuMjM0NCI+JiMyNTk0NTsmIzIzNDYwOyYjMzgzNzY7JiMzMTEwNTs8L3RleHQ+PC9nPjwhLS1lbnRpdHkgPz8/Py0tPjxnIGlkPSJlbGVtXyYjMjY2NTc7JiMyMjI1MzsmIzI4MDQwOyYjMzYxNTM7Ij48cmVjdCBmaWxsPSIjRjFGMUYxIiBoZWlnaHQ9IjM0Ljk4NDQiIHJ4PSIyLjUiIHJ5PSIyLjUiIHN0eWxlPSJzdHJva2U6IzE4MTgxODtzdHJva2Utd2lkdGg6MC41OyIgd2lkdGg9Ijc2IiB4PSI5MiIgeT0iMTQ3Ii8+PHRleHQgZmlsbD0iIzAwMDAwMCIgZm9udC1mYW1pbHk9InNhbnMtc2VyaWYiIGZvbnQtc2l6ZT0iMTQiIGxlbmd0aEFkanVzdD0ic3BhY2luZyIgdGV4dExlbmd0aD0iNTYiIHg9IjEwMiIgeT0iMTcwLjIzNDQiPiYjMjY2NTc7JiMyMjI1MzsmIzI4MDQwOyYjMzYxNTM7PC90ZXh0PjwvZz48IS0tZW50aXR5ID8/Pz8/Py0tPjxnIGlkPSJlbGVtXyYjMzI3NzE7JiMyMTIyMDsmIzMxNjQ5OyYjMjk3MDI7JiMyNzE2OTsmIzIyMzU5OyI+PHJlY3QgZmlsbD0iI0YxRjFGMSIgaGVpZ2h0PSIzNC45ODQ0IiByeD0iMi41IiByeT0iMi41IiBzdHlsZT0ic3Ryb2tlOiMxODE4MTg7c3Ryb2tlLXdpZHRoOjAuNTsiIHdpZHRoPSIxMDQiIHg9IjU3OCIgeT0iMjU1Ii8+PHRleHQgZmlsbD0iIzAwMDAwMCIgZm9udC1mYW1pbHk9InNhbnMtc2VyaWYiIGZvbnQtc2l6ZT0iMTQiIGxlbmd0aEFkanVzdD0ic3BhY2luZyIgdGV4dExlbmd0aD0iODQiIHg9IjU4OCIgeT0iMjc4LjIzNDQiPiYjMzI3NzE7JiMyMTIyMDsmIzMxNjQ5OyYjMjk3MDI7JiMyNzE2OTsmIzIyMzU5OzwvdGV4dD48L2c+PCEtLWVudGl0eSA/Pz8/Pz8tLT48ZyBpZD0iZWxlbV8mIzMyNDE4OyYjMjI4MDY7JiMyNzk3OTsmIzI4MjAxOyYjMjcxNjk7JiMyMjM1OTsiPjxyZWN0IGZpbGw9IiNGMUYxRjEiIGhlaWdodD0iMzQuOTg0NCIgcng9IjIuNSIgcnk9IjIuNSIgc3R5bGU9InN0cm9rZTojMTgxODE4O3N0cm9rZS13aWR0aDowLjU7IiB3aWR0aD0iMTA0IiB4PSI0MzkiIHk9IjI1NSIvPjx0ZXh0IGZpbGw9IiMwMDAwMDAiIGZvbnQtZmFtaWx5PSJzYW5zLXNlcmlmIiBmb250LXNpemU9IjE0IiBsZW5ndGhBZGp1c3Q9InNwYWNpbmciIHRleHRMZW5ndGg9Ijg0IiB4PSI0NDkiIHk9IjI3OC4yMzQ0Ij4mIzMyNDE4OyYjMjI4MDY7JiMyNzk3OTsmIzI4MjAxOyYjMjcxNjk7JiMyMjM1OTs8L3RleHQ+PC9nPjwhLS1lbnRpdHkgPz8/Pz8/LS0+PGcgaWQ9ImVsZW1fJiMzNTc3NTsmIzIzNDU4OyYjMzE2NDk7JiMyOTcwMjsmIzI3MTY5OyYjMjIzNTk7Ij48cmVjdCBmaWxsPSIjRjFGMUYxIiBoZWlnaHQ9IjM0Ljk4NDQiIHJ4PSIyLjUiIHJ5PSIyLjUiIHN0eWxlPSJzdHJva2U6IzE4MTgxODtzdHJva2Utd2lkdGg6MC41OyIgd2lkdGg9IjEwNCIgeD0iMzAwIiB5PSIyNTUiLz48dGV4dCBmaWxsPSIjMDAwMDAwIiBmb250LWZhbWlseT0ic2Fucy1zZXJpZiIgZm9udC1zaXplPSIxNCIgbGVuZ3RoQWRqdXN0PSJzcGFjaW5nIiB0ZXh0TGVuZ3RoPSI4NCIgeD0iMzEwIiB5PSIyNzguMjM0NCI+JiMzNTc3NTsmIzIzNDU4OyYjMzE2NDk7JiMyOTcwMjsmIzI3MTY5OyYjMjIzNTk7PC90ZXh0PjwvZz48IS0tZW50aXR5ID8/Pz8/Py0tPjxnIGlkPSJlbGVtXyYjMjU5NDU7JiMyMzQ2MDsmIzM4Mzc2OyYjMzExMDU7JiMyNzE2OTsmIzIyMzU5OyI+PHJlY3QgZmlsbD0iI0YxRjFGMSIgaGVpZ2h0PSIzNC45ODQ0IiByeD0iMi41IiByeT0iMi41IiBzdHlsZT0ic3Ryb2tlOiMxODE4MTg7c3Ryb2tlLXdpZHRoOjAuNTsiIHdpZHRoPSIxMDQiIHg9IjE2MSIgeT0iMjU1Ii8+PHRleHQgZmlsbD0iIzAwMDAwMCIgZm9udC1mYW1pbHk9InNhbnMtc2VyaWYiIGZvbnQtc2l6ZT0iMTQiIGxlbmd0aEFkanVzdD0ic3BhY2luZyIgdGV4dExlbmd0aD0iODQiIHg9IjE3MSIgeT0iMjc4LjIzNDQiPiYjMjU5NDU7JiMyMzQ2MDsmIzM4Mzc2OyYjMzExMDU7JiMyNzE2OTsmIzIyMzU5OzwvdGV4dD48L2c+PCEtLWVudGl0eSA/Pz8/Pz8tLT48ZyBpZD0iZWxlbV8mIzI2NjU3OyYjMjIyNTM7JiMyODA0MDsmIzM2MTUzOyYjMjcxNjk7JiMyMjM1OTsiPjxyZWN0IGZpbGw9IiNGMUYxRjEiIGhlaWdodD0iMzQuOTg0NCIgcng9IjIuNSIgcnk9IjIuNSIgc3R5bGU9InN0cm9rZTojMTgxODE4O3N0cm9rZS13aWR0aDowLjU7IiB3aWR0aD0iMTA0IiB4PSIyMiIgeT0iMjU1Ii8+PHRleHQgZmlsbD0iIzAwMDAwMCIgZm9udC1mYW1pbHk9InNhbnMtc2VyaWYiIGZvbnQtc2l6ZT0iMTQiIGxlbmd0aEFkanVzdD0ic3BhY2luZyIgdGV4dExlbmd0aD0iODQiIHg9IjMyIiB5PSIyNzguMjM0NCI+JiMyNjY1NzsmIzIyMjUzOyYjMjgwNDA7JiMzNjE1MzsmIzI3MTY5OyYjMjIzNTk7PC90ZXh0PjwvZz48IS0tZW50aXR5ID8/Py0tPjxnIGlkPSJlbGVtXyYjMjU5Njg7JiMyNTQ1NDsmIzI0MjExOyI+PHJlY3QgZmlsbD0iI0YxRjFGMSIgaGVpZ2h0PSIzNC45ODQ0IiByeD0iMi41IiByeT0iMi41IiBzdHlsZT0ic3Ryb2tlOiMxODE4MTg7c3Ryb2tlLXdpZHRoOjAuNTsiIHdpZHRoPSI2MiIgeD0iMzIxIiB5PSIzNjMiLz48dGV4dCBmaWxsPSIjMDAwMDAwIiBmb250LWZhbWlseT0ic2Fucy1zZXJpZiIgZm9udC1zaXplPSIxNCIgbGVuZ3RoQWRqdXN0PSJzcGFjaW5nIiB0ZXh0TGVuZ3RoPSI0MiIgeD0iMzMxIiB5PSIzODYuMjM0NCI+JiMyNTk2ODsmIzI1NDU0OyYjMjQyMTE7PC90ZXh0PjwvZz48IS0tbGluayA/Pz8/IHRvID8/Pz8tLT48ZyBpZD0ibGlua18mIzIzMzk4OyYjMjk5ODM7JiMzMDAyODsmIzM4NzU0O18mIzMyNzcxOyYjMjEyMjA7JiMzMTY0OTsmIzI5NzAyOyI+PHBhdGggZD0iTTcxOC40Miw3NC4xOCBDNzA4LjQyLDgxLjcgNjk2LjI4LDkwLjU1IDY4NSw5OCBDNjYwLjA4LDExNC40NyA2MzAuOTYsMTMxLjU3IDYwOC44LDE0NC4xNyAiIGZpbGw9Im5vbmUiIGlkPSImIzIzMzk4OyYjMjk5ODM7JiMzMDAyODsmIzM4NzU0Oy10by0mIzMyNzcxOyYjMjEyMjA7JiMzMTY0OTsmIzI5NzAyOyIgc3R5bGU9InN0cm9rZTojMTgxODE4O3N0cm9rZS13aWR0aDoxLjA7Ii8+PHBvbHlnb24gZmlsbD0iIzE4MTgxOCIgcG9pbnRzPSI2MDQuMTgsMTQ2Ljc5LDYxMy45ODE5LDE0NS44Mjg5LDYwOC41MjkxLDE0NC4zMjMxLDYxMC4wMzQ5LDEzOC44NzA0LDYwNC4xOCwxNDYuNzkiIHN0eWxlPSJzdHJva2U6IzE4MTgxODtzdHJva2Utd2lkdGg6MS4wOyIvPjwvZz48IS0tbGluayA/Pz8/IHRvID8/Pz8tLT48ZyBpZD0ibGlua18mIzIzNDc4OyYjMzgyNzE7JiMzMDAyODsmIzM4NzU0O18mIzMyNzcxOyYjMjEyMjA7JiMzMTY0OTsmIzI5NzAyOyI+PHBhdGggZD0iTTYyMC40MSw3NC4wNiBDNjEwLjksOTIuMzkgNTk1LjU0LDEyMS45OSA1ODUuMTIsMTQyLjA3ICIgZmlsbD0ibm9uZSIgaWQ9IiYjMjM0Nzg7JiMzODI3MTsmIzMwMDI4OyYjMzg3NTQ7LXRvLSYjMzI3NzE7JiMyMTIyMDsmIzMxNjQ5OyYjMjk3MDI7IiBzdHlsZT0ic3Ryb2tlOiMxODE4MTg7c3Ryb2tlLXdpZHRoOjEuMDsiLz48cG9seWdvbiBmaWxsPSIjMTgxODE4IiBwb2ludHM9IjU4Mi43MSwxNDYuNyw1OTAuMzk5OCwxNDAuNTQ2NCw1ODUuMDA4NywxNDIuMjU5Nyw1ODMuMjk1NCwxMzYuODY4Niw1ODIuNzEsMTQ2LjciIHN0eWxlPSJzdHJva2U6IzE4MTgxODtzdHJva2Utd2lkdGg6MS4wOyIvPjwvZz48IS0tbGluayA/Pz8/IHRvID8/Pz8tLT48ZyBpZD0ibGlua18mIzMyNzY5OyYjMjQwNzI7JiMzMDAyODsmIzM4NzU0O18mIzMyNzcxOyYjMjEyMjA7JiMzMTY0OTsmIzI5NzAyOyI+PHBhdGggZD0iTTUyNi43NSw3NC4wNiBDNTM2LjQzLDkyLjM5IDU1Mi4wNywxMjEuOTkgNTYyLjY4LDE0Mi4wNyAiIGZpbGw9Im5vbmUiIGlkPSImIzMyNzY5OyYjMjQwNzI7JiMzMDAyODsmIzM4NzU0Oy10by0mIzMyNzcxOyYjMjEyMjA7JiMzMTY0OTsmIzI5NzAyOyIgc3R5bGU9InN0cm9rZTojMTgxODE4O3N0cm9rZS13aWR0aDoxLjA7Ii8+PHBvbHlnb24gZmlsbD0iIzE4MTgxOCIgcG9pbnRzPSI1NjUuMTMsMTQ2LjcsNTY0LjQ4MTksMTM2Ljg3MjUsNTYyLjgwMywxNDIuMjc0NSw1NTcuNDAxLDE0MC41OTU2LDU2NS4xMywxNDYuNyIgc3R5bGU9InN0cm9rZTojMTgxODE4O3N0cm9rZS13aWR0aDoxLjA7Ii8+PC9nPjwhLS1saW5rID8/Pz8/IHRvID8/Pz8tLT48ZyBpZD0ibGlua18mIzMxNjQ5OyYjMjk3MDI7JiMyMTU5MjsmIzMwMDI4OyYjMzg3NTQ7XyYjMzI3NzE7JiMyMTIyMDsmIzMxNjQ5OyYjMjk3MDI7Ij48cGF0aCBkPSJNNDIwLjY0LDc0IEM0MzIuMzksODIuNTQgNDQ3Ljc3LDkyLjMzIDQ2Myw5OCBDNDg2LjU2LDEwNi43OCA0OTYuNjQsOTQuNTEgNTE5LDEwNiBDNTM1LjU2LDExNC41MSA1NDkuOTIsMTMwIDU1OS44MiwxNDIuNzUgIiBmaWxsPSJub25lIiBpZD0iJiMzMTY0OTsmIzI5NzAyOyYjMjE1OTI7JiMzMDAyODsmIzM4NzU0Oy10by0mIzMyNzcxOyYjMjEyMjA7JiMzMTY0OTsmIzI5NzAyOyIgc3R5bGU9InN0cm9rZTojMTgxODE4O3N0cm9rZS13aWR0aDoxLjA7Ii8+PHBvbHlnb24gZmlsbD0iIzE4MTgxOCIgcG9pbnRzPSI1NjMsMTQ2Ljk2LDU2MC43NjE2LDEzNy4zNjg5LDU1OS45ODQsMTQyLjk3Miw1NTQuMzgwOSwxNDIuMTk0NSw1NjMsMTQ2Ljk2IiBzdHlsZT0ic3Ryb2tlOiMxODE4MTg7c3Ryb2tlLXdpZHRoOjEuMDsiLz48L2c+PCEtLWxpbmsgPz8/PyB0byA/Pz8/Pz8tLT48ZyBpZD0ibGlua18mIzMyNzcxOyYjMjEyMjA7JiMzMTY0OTsmIzI5NzAyO18mIzMyNzcxOyYjMjEyMjA7JiMzMTY0OTsmIzI5NzAyOyYjMjcxNjk7JiMyMjM1OTsiPjxwYXRoIGQ9Ik01ODIuNzUsMTgyLjA2IEM1OTIuNDMsMjAwLjM5IDYwOC4wNywyMjkuOTkgNjE4LjY4LDI1MC4wNyAiIGZpbGw9Im5vbmUiIGlkPSImIzMyNzcxOyYjMjEyMjA7JiMzMTY0OTsmIzI5NzAyOy10by0mIzMyNzcxOyYjMjEyMjA7JiMzMTY0OTsmIzI5NzAyOyYjMjcxNjk7JiMyMjM1OTsiIHN0eWxlPSJzdHJva2U6IzE4MTgxODtzdHJva2Utd2lkdGg6MS4wOyIvPjxwb2x5Z29uIGZpbGw9IiMxODE4MTgiIHBvaW50cz0iNjIxLjEzLDI1NC43LDYyMC40ODE5LDI0NC44NzI1LDYxOC44MDMsMjUwLjI3NDUsNjEzLjQwMSwyNDguNTk1Niw2MjEuMTMsMjU0LjciIHN0eWxlPSJzdHJva2U6IzE4MTgxODtzdHJva2Utd2lkdGg6MS4wOyIvPjwvZz48IS0tbGluayA/Pz8/IHRvID8/Pz8/Py0tPjxnIGlkPSJsaW5rXyYjMzI0MTg7JiMyMjgwNjsmIzI3OTc5OyYjMjgyMDE7XyYjMzI0MTg7JiMyMjgwNjsmIzI3OTc5OyYjMjgyMDE7JiMyNzE2OTsmIzIyMzU5OyI+PHBhdGggZD0iTTQ2Ny4zOCwxODIuMDYgQzQ3Mi4yLDIwMC4zMSA0NzkuOTcsMjI5Ljc0IDQ4NS4yNywyNDkuODEgIiBmaWxsPSJub25lIiBpZD0iJiMzMjQxODsmIzIyODA2OyYjMjc5Nzk7JiMyODIwMTstdG8tJiMzMjQxODsmIzIyODA2OyYjMjc5Nzk7JiMyODIwMTsmIzI3MTY5OyYjMjIzNTk7IiBzdHlsZT0ic3Ryb2tlOiMxODE4MTg7c3Ryb2tlLXdpZHRoOjEuMDsiLz48cG9seWdvbiBmaWxsPSIjMTgxODE4IiBwb2ludHM9IjQ4Ni41NiwyNTQuNyw0ODguMTE2NywyNDQuOTc0OSw0ODUuMjc3LDI0OS44Njc0LDQ4MC4zODQ1LDI0Ny4wMjc3LDQ4Ni41NiwyNTQuNyIgc3R5bGU9InN0cm9rZTojMTgxODE4O3N0cm9rZS13aWR0aDoxLjA7Ii8+PC9nPjwhLS1saW5rID8/Pz8gdG8gPz8/Pz8/LS0+PGcgaWQ9ImxpbmtfJiMzNTc3NTsmIzIzNDU4OyYjMzE2NDk7JiMyOTcwMjtfJiMzNTc3NTsmIzIzNDU4OyYjMzE2NDk7JiMyOTcwMjsmIzI3MTY5OyYjMjIzNTk7Ij48cGF0aCBkPSJNMzUyLDE4Mi4wNiBDMzUyLDIwMC4yNCAzNTIsMjI5LjQ5IDM1MiwyNDkuNTYgIiBmaWxsPSJub25lIiBpZD0iJiMzNTc3NTsmIzIzNDU4OyYjMzE2NDk7JiMyOTcwMjstdG8tJiMzNTc3NTsmIzIzNDU4OyYjMzE2NDk7JiMyOTcwMjsmIzI3MTY5OyYjMjIzNTk7IiBzdHlsZT0ic3Ryb2tlOiMxODE4MTg7c3Ryb2tlLXdpZHRoOjEuMDsiLz48cG9seWdvbiBmaWxsPSIjMTgxODE4IiBwb2ludHM9IjM1MiwyNTQuNywzNTYsMjQ1LjcsMzUyLDI0OS43LDM0OCwyNDUuNywzNTIsMjU0LjciIHN0eWxlPSJzdHJva2U6IzE4MTgxODtzdHJva2Utd2lkdGg6MS4wOyIvPjwvZz48IS0tbGluayA/Pz8/IHRvID8/Pz8/Py0tPjxnIGlkPSJsaW5rXyYjMjU5NDU7JiMyMzQ2MDsmIzM4Mzc2OyYjMzExMDU7XyYjMjU5NDU7JiMyMzQ2MDsmIzM4Mzc2OyYjMzExMDU7JiMyNzE2OTsmIzIyMzU5OyI+PHBhdGggZD0iTTIzNi42MiwxODIuMDYgQzIzMS44LDIwMC4zMSAyMjQuMDMsMjI5Ljc0IDIxOC43MywyNDkuODEgIiBmaWxsPSJub25lIiBpZD0iJiMyNTk0NTsmIzIzNDYwOyYjMzgzNzY7JiMzMTEwNTstdG8tJiMyNTk0NTsmIzIzNDYwOyYjMzgzNzY7JiMzMTEwNTsmIzI3MTY5OyYjMjIzNTk7IiBzdHlsZT0ic3Ryb2tlOiMxODE4MTg7c3Ryb2tlLXdpZHRoOjEuMDsiLz48cG9seWdvbiBmaWxsPSIjMTgxODE4IiBwb2ludHM9IjIxNy40NCwyNTQuNywyMjMuNjE1NSwyNDcuMDI3NywyMTguNzIzLDI0OS44Njc0LDIxNS44ODMzLDI0NC45NzQ5LDIxNy40NCwyNTQuNyIgc3R5bGU9InN0cm9rZTojMTgxODE4O3N0cm9rZS13aWR0aDoxLjA7Ii8+PC9nPjwhLS1saW5rID8/Pz8gdG8gPz8/Pz8/LS0+PGcgaWQ9ImxpbmtfJiMyNjY1NzsmIzIyMjUzOyYjMjgwNDA7JiMzNjE1MztfJiMyNjY1NzsmIzIyMjUzOyYjMjgwNDA7JiMzNjE1MzsmIzI3MTY5OyYjMjIzNTk7Ij48cGF0aCBkPSJNMTIxLjI1LDE4Mi4wNiBDMTExLjU3LDIwMC4zOSA5NS45MywyMjkuOTkgODUuMzIsMjUwLjA3ICIgZmlsbD0ibm9uZSIgaWQ9IiYjMjY2NTc7JiMyMjI1MzsmIzI4MDQwOyYjMzYxNTM7LXRvLSYjMjY2NTc7JiMyMjI1MzsmIzI4MDQwOyYjMzYxNTM7JiMyNzE2OTsmIzIyMzU5OyIgc3R5bGU9InN0cm9rZTojMTgxODE4O3N0cm9rZS13aWR0aDoxLjA7Ii8+PHBvbHlnb24gZmlsbD0iIzE4MTgxOCIgcG9pbnRzPSI4Mi44NywyNTQuNyw5MC41OTksMjQ4LjU5NTYsODUuMTk3LDI1MC4yNzQ1LDgzLjUxODEsMjQ0Ljg3MjUsODIuODcsMjU0LjciIHN0eWxlPSJzdHJva2U6IzE4MTgxODtzdHJva2Utd2lkdGg6MS4wOyIvPjwvZz48IS0tbGluayA/Pz8/Pz8gdG8gPz8/LS0+PGcgaWQ9ImxpbmtfJiMzMjc3MTsmIzIxMjIwOyYjMzE2NDk7JiMyOTcwMjsmIzI3MTY5OyYjMjIzNTk7XyYjMjU5Njg7JiMyNTQ1NDsmIzI0MjExOyI+PHBhdGggZD0iTTYwNC44NSwyOTAuMTMgQzU5Mi4wOCwyOTguMDggNTc2LjExLDMwNy4zIDU2MSwzMTQgQzUwMi41NCwzMzkuOTEgNDMwLjcsMzYwLjA1IDM4OC4yOCwzNzAuODEgIiBmaWxsPSJub25lIiBpZD0iJiMzMjc3MTsmIzIxMjIwOyYjMzE2NDk7JiMyOTcwMjsmIzI3MTY5OyYjMjIzNTk7LXRvLSYjMjU5Njg7JiMyNTQ1NDsmIzI0MjExOyIgc3R5bGU9InN0cm9rZTojMTgxODE4O3N0cm9rZS13aWR0aDoxLjA7Ii8+PHBvbHlnb24gZmlsbD0iIzE4MTgxOCIgcG9pbnRzPSIzODMuMjYsMzcyLjA4LDM5Mi45NjczLDM3My43NDQxLDM4OC4xMDY1LDM3MC44NTA1LDM5MS4wMDAxLDM2NS45ODk3LDM4My4yNiwzNzIuMDgiIHN0eWxlPSJzdHJva2U6IzE4MTgxODtzdHJva2Utd2lkdGg6MS4wOyIvPjwvZz48IS0tbGluayA/Pz8/Pz8gdG8gPz8/LS0+PGcgaWQ9ImxpbmtfJiMzMjQxODsmIzIyODA2OyYjMjc5Nzk7JiMyODIwMTsmIzI3MTY5OyYjMjIzNTk7XyYjMjU5Njg7JiMyNTQ1NDsmIzI0MjExOyI+PHBhdGggZD0iTTQ2OS4yOCwyOTAuMDYgQzQ0NC42NCwzMDguODUgNDA0LjQ2LDMzOS40OSAzNzguMTMsMzU5LjU3ICIgZmlsbD0ibm9uZSIgaWQ9IiYjMzI0MTg7JiMyMjgwNjsmIzI3OTc5OyYjMjgyMDE7JiMyNzE2OTsmIzIyMzU5Oy10by0mIzI1OTY4OyYjMjU0NTQ7JiMyNDIxMTsiIHN0eWxlPSJzdHJva2U6IzE4MTgxODtzdHJva2Utd2lkdGg6MS4wOyIvPjxwb2x5Z29uIGZpbGw9IiMxODE4MTgiIHBvaW50cz0iMzc0LjAyLDM2Mi43LDM4My42MDIxLDM2MC40MjMyLDM3Ny45OTU4LDM1OS42NjgxLDM3OC43NTEsMzU0LjA2MTgsMzc0LjAyLDM2Mi43IiBzdHlsZT0ic3Ryb2tlOiMxODE4MTg7c3Ryb2tlLXdpZHRoOjEuMDsiLz48L2c+PCEtLWxpbmsgPz8/Pz8/IHRvID8/Py0tPjxnIGlkPSJsaW5rXyYjMzU3NzU7JiMyMzQ1ODsmIzMxNjQ5OyYjMjk3MDI7JiMyNzE2OTsmIzIyMzU5O18mIzI1OTY4OyYjMjU0NTQ7JiMyNDIxMTsiPjxwYXRoIGQ9Ik0zNTIsMjkwLjA2IEMzNTIsMzA4LjI0IDM1MiwzMzcuNDkgMzUyLDM1Ny41NiAiIGZpbGw9Im5vbmUiIGlkPSImIzM1Nzc1OyYjMjM0NTg7JiMzMTY0OTsmIzI5NzAyOyYjMjcxNjk7JiMyMjM1OTstdG8tJiMyNTk2ODsmIzI1NDU0OyYjMjQyMTE7IiBzdHlsZT0ic3Ryb2tlOiMxODE4MTg7c3Ryb2tlLXdpZHRoOjEuMDsiLz48cG9seWdvbiBmaWxsPSIjMTgxODE4IiBwb2ludHM9IjM1MiwzNjIuNywzNTYsMzUzLjcsMzUyLDM1Ny43LDM0OCwzNTMuNywzNTIsMzYyLjciIHN0eWxlPSJzdHJva2U6IzE4MTgxODtzdHJva2Utd2lkdGg6MS4wOyIvPjwvZz48IS0tbGluayA/Pz8/Pz8gdG8gPz8/LS0+PGcgaWQ9ImxpbmtfJiMyNTk0NTsmIzIzNDYwOyYjMzgzNzY7JiMzMTEwNTsmIzI3MTY5OyYjMjIzNTk7XyYjMjU5Njg7JiMyNTQ1NDsmIzI0MjExOyI+PHBhdGggZD0iTTIzNC43MiwyOTAuMDYgQzI1OS4zNiwzMDguODUgMjk5LjU0LDMzOS40OSAzMjUuODcsMzU5LjU3ICIgZmlsbD0ibm9uZSIgaWQ9IiYjMjU5NDU7JiMyMzQ2MDsmIzM4Mzc2OyYjMzExMDU7JiMyNzE2OTsmIzIyMzU5Oy10by0mIzI1OTY4OyYjMjU0NTQ7JiMyNDIxMTsiIHN0eWxlPSJzdHJva2U6IzE4MTgxODtzdHJva2Utd2lkdGg6MS4wOyIvPjxwb2x5Z29uIGZpbGw9IiMxODE4MTgiIHBvaW50cz0iMzI5Ljk4LDM2Mi43LDMyNS4yNDksMzU0LjA2MTgsMzI2LjAwNDIsMzU5LjY2ODEsMzIwLjM5NzksMzYwLjQyMzIsMzI5Ljk4LDM2Mi43IiBzdHlsZT0ic3Ryb2tlOiMxODE4MTg7c3Ryb2tlLXdpZHRoOjEuMDsiLz48L2c+PCEtLWxpbmsgPz8/Pz8/IHRvID8/Py0tPjxnIGlkPSJsaW5rXyYjMjY2NTc7JiMyMjI1MzsmIzI4MDQwOyYjMzYxNTM7JiMyNzE2OTsmIzIyMzU5O18mIzI1OTY4OyYjMjU0NTQ7JiMyNDIxMTsiPjxwYXRoIGQ9Ik05OS4xNSwyOTAuMTMgQzExMS45MiwyOTguMDggMTI3Ljg5LDMwNy4zIDE0MywzMTQgQzIwMS40NiwzMzkuOTEgMjczLjMsMzYwLjA1IDMxNS43MiwzNzAuODEgIiBmaWxsPSJub25lIiBpZD0iJiMyNjY1NzsmIzIyMjUzOyYjMjgwNDA7JiMzNjE1MzsmIzI3MTY5OyYjMjIzNTk7LXRvLSYjMjU5Njg7JiMyNTQ1NDsmIzI0MjExOyIgc3R5bGU9InN0cm9rZTojMTgxODE4O3N0cm9rZS13aWR0aDoxLjA7Ii8+PHBvbHlnb24gZmlsbD0iIzE4MTgxOCIgcG9pbnRzPSIzMjAuNzQsMzcyLjA4LDMxMi45OTk5LDM2NS45ODk3LDMxNS44OTM1LDM3MC44NTA1LDMxMS4wMzI3LDM3My43NDQxLDMyMC43NCwzNzIuMDgiIHN0eWxlPSJzdHJva2U6IzE4MTgxODtzdHJva2Utd2lkdGg6MS4wOyIvPjwvZz48IS0tU1JDPVtYUEIxSWlEMDU0TnQtT2VYLV93Ml9uOUF3S0FIOGt3YWEyZjhpMU9pOWVyTFlvUTQ0WFNUNUJKNjJGUGRWM0Y5Tm5ZVEhaQUpZb3gzRlZEb3RpbVRFRHJUZnp6WmpsSEp1UnRBdUJuU25GSHFSQkNaWXg2M05sVkdzVV9sTEpjamJqQV9LeGJqSDduVDFYaU81VXc4Q1d6NmFhVm91ZkljTHRLd2pBbjFSS0V2X29ycUV3NnAyRGFLeFdjRDRwTjJkOWw3YkNwNG9yWGEzd09EdG4yRnVJYUhwOGFkUFBaQXZTWUN4WUV3TU9jckxwb193UFFWc05OYkx4aGxuU1ZxRnFrSEhoRzhfdDI1R0RDTzBhcmwzM0ppUXcydldtV1VuT0hOX29iM1pkUEdFVU1ORnlWcTZoMUVQeVR5MnhxRGFEMUEwR2NwNm1Zb3pFeXNLYy1oRHE5bndFQnJVY3BkV1ZsTmt3OHV6MG53U1JPU1UwcUJNVFRaVm95VkFSU1h1RGs2VzJvMHNnT2N6MEswXS0tPjwvZz48L3N2Zz4=;" vertex="1" parent="1">
            <mxGeometry x="10" y="220" width="801" height="421" as="geometry" />
          </mxCell>
        </UserObject>
      </root>
    </mxGraphModel>
  </diagram>
</mxfile>
